<!DOCTYPE svg PUBLIC "-//W3C//DTD SVG 20010904//EN" "http://www.w3.org/TR/2001/REC-SVG-20010904/DTD/svg10.dtd">
<svg version="1.0" xmlns="http://www.w3.org/2000/svg" width="385px" height="385px" viewBox="0 0 3850 3850" preserveAspectRatio="xMidYMid meet">
<g id="layer1" fill="#804f7f" stroke="none">
 <path d="M840 3830 c0 -5 4 -10 9 -10 6 0 13 5 16 10 3 6 -1 10 -9 10 -9 0 -16 -4 -16 -10z"/>
 <path d="M2550 3820 c0 -5 7 -10 15 -10 8 0 15 5 15 10 0 6 -7 10 -15 10 -8 0 -15 -4 -15 -10z"/>
 <path d="M773 3775 c-3 -9 -3 -18 0 -21 9 -9 27 6 27 22 0 19 -19 18 -27 -1z"/>
 <path d="M2562 3778 c3 -7 13 -15 22 -16 12 -3 17 1 14 10 -3 7 -13 15 -22 16 -12 3 -17 -1 -14 -10z"/>
 <path d="M2610 3710 c0 -13 5 -20 13 -17 6 2 12 10 12 17 0 7 -6 15 -12 18 -8 2 -13 -5 -13 -18z"/>
 <path d="M702 3708 c-14 -14 -16 -38 -4 -38 12 0 32 23 32 37 0 16 -12 17 -28 1z"/>
 <path d="M2650 3650 c0 -5 5 -10 10 -10 6 0 10 5 10 10 0 6 -4 10 -10 10 -5 0 -10 -4 -10 -10z"/>
 <path d="M625 3619 c-4 -6 -5 -13 -2 -16 7 -7 27 6 27 18 0 12 -17 12 -25 -2z"/>
 <path d="M3360 3615 c0 -8 7 -15 15 -15 8 0 15 7 15 15 0 8 -7 15 -15 15 -8 0 -15 -7 -15 -15z"/>
 <path d="M3446 3604 c-8 -22 -8 -24 8 -24 12 0 26 20 26 36 0 12 -29 2 -34 -12z"/>
 <path d="M600 3575 c0 -8 5 -15 10 -15 6 0 10 7 10 15 0 8 -4 15 -10 15 -5 0 -10 -7 -10 -15z"/>
 <path d="M3330 3570 c0 -5 5 -10 10 -10 6 0 10 5 10 10 0 6 -4 10 -10 10 -5 0 -10 -4 -10 -10z"/>
 <path d="M3380 3554 c0 -9 5 -14 12 -12 18 6 21 28 4 28 -9 0 -16 -7 -16 -16z"/>
 <path d="M2700 3540 c0 -5 7 -10 15 -10 8 0 15 5 15 10 0 6 -7 10 -15 10 -8 0 -15 -4 -15 -10z"/>
 <path d="M560 3515 c0 -8 5 -15 10 -15 6 0 10 7 10 15 0 8 -4 15 -10 15 -5 0 -10 -7 -10 -15z"/>
 <path d="M1940 3495 c0 -8 5 -15 10 -15 6 0 10 7 10 15 0 8 -4 15 -10 15 -5 0 -10 -7 -10 -15z"/>
 <path d="M1840 3490 c0 -5 7 -10 15 -10 8 0 15 5 15 10 0 6 -7 10 -15 10 -8 0 -15 -4 -15 -10z"/>
 <path d="M1490 3475 c0 -8 5 -15 10 -15 6 0 10 7 10 15 0 8 -4 15 -10 15 -5 0 -10 -7 -10 -15z"/>
 <path d="M502 3460 c-15 -24 -15 -30 -1 -30 12 0 38 29 39 43 0 15 -26 6 -38 -13z"/>
 <path d="M1413 3473 c-7 -2 -13 -9 -13 -15 0 -14 43 -6 48 10 4 12 -12 15 -35 5z"/>
 <path d="M2100 3460 c0 -5 7 -10 15 -10 8 0 15 5 15 10 0 6 -7 10 -15 10 -8 0 -15 -4 -15 -10z"/>
 <path d="M1217 3423 c-12 -11 -8 -23 8 -23 8 0 15 7 15 15 0 16 -12 20 -23 8z"/>
 <path d="M3450 3411 c0 -11 5 -23 10 -26 6 -3 10 3 10 14 0 11 -4 23 -10 26 -5 3 -10 -3 -10 -14z"/>
 <path d="M443 3385 c-3 -9 -3 -19 1 -22 7 -7 36 16 36 28 0 15 -30 10 -37 -6z"/>
 <path d="M372 3288 c-14 -14 -16 -38 -4 -38 12 0 32 23 32 37 0 16 -12 17 -28 1z"/>
 <path d="M2522 3268 c7 -19 38 -22 38 -4 0 10 -9 16 -21 16 -12 0 -19 -5 -17 -12z"/>
 <path d="M878 3213 c7 -3 16 -2 19 1 4 3 -2 6 -13 5 -11 0 -14 -3 -6 -6z"/>
 <path d="M2610 3195 c0 -8 9 -19 20 -25 23 -12 25 -7 10 21 -13 22 -30 25 -30 4z"/>
 <path d="M2850 3185 c0 -8 7 -15 15 -15 8 0 15 7 15 15 0 8 -7 15 -15 15 -8 0 -15 -7 -15 -15z"/>
 <path d="M810 3180 c0 -5 7 -10 15 -10 8 0 15 5 15 10 0 6 -7 10 -15 10 -8 0 -15 -4 -15 -10z"/>
 <path d="M2880 3150 c0 -5 5 -10 10 -10 6 0 10 5 10 10 0 6 -4 10 -10 10 -5 0 -10 -4 -10 -10z"/>
 <path d="M208 3081 c-36 -36 -48 -61 -30 -61 10 0 82 78 82 90 0 18 -15 10 -52 -29z"/>
 <path d="M760 3110 c0 -5 7 -10 15 -10 8 0 15 5 15 10 0 6 -7 10 -15 10 -8 0 -15 -4 -15 -10z"/>
 <path d="M2670 3110 c0 -5 7 -10 15 -10 8 0 15 5 15 10 0 6 -7 10 -15 10 -8 0 -15 -4 -15 -10z"/>
 <path d="M3040 3065 c0 -16 27 -32 37 -21 7 7 -16 36 -28 36 -5 0 -9 -7 -9 -15z"/>
 <path d="M655 3040 c-10 -11 -15 -23 -12 -27 8 -7 47 25 47 39 0 14 -16 9 -35 -12z"/>
 <path d="M2710 3050 c0 -5 7 -10 15 -10 8 0 15 5 15 10 0 6 -7 10 -15 10 -8 0 -15 -4 -15 -10z"/>
 <path d="M3122 3014 c1 -9 9 -19 16 -22 9 -3 13 2 10 14 -1 9 -9 19 -16 22 -9 3 -13 -2 -10 -14z"/>
 <path d="M130 2990 c0 -5 5 -10 10 -10 6 0 10 5 10 10 0 6 -4 10 -10 10 -5 0 -10 -4 -10 -10z"/>
 <path d="M3162 2978 c6 -18 28 -21 28 -4 0 9 -7 16 -16 16 -9 0 -14 -5 -12 -12z"/>
 <path d="M2760 2975 c0 -14 21 -45 30 -45 18 0 10 29 -10 40 -11 6 -20 8 -20 5z"/>
 <path d="M570 2945 c-7 -9 -10 -18 -7 -22 8 -7 37 15 37 28 0 14 -16 11 -30 -6z"/>
 <path d="M67 2924 c-11 -14 -16 -28 -13 -31 6 -6 56 38 56 50 0 16 -26 5 -43 -19z"/>
 <path d="M2800 2900 c0 -5 7 -10 15 -10 8 0 15 5 15 10 0 6 -7 10 -15 10 -8 0 -15 -4 -15 -10z"/>
 <path d="M3270 2901 c0 -12 29 -35 36 -28 11 10 -5 37 -21 37 -8 0 -15 -4 -15 -9z"/>
 <path d="M492 2867 c-22 -24 -29 -47 -14 -47 12 0 52 44 52 58 0 18 -14 14 -38 -11z"/>
 <path d="M10 2864 c0 -8 5 -12 10 -9 6 3 10 10 10 16 0 5 -4 9 -10 9 -5 0 -10 -7 -10 -16z"/>
 <path d="M3040 2816 c0 -9 7 -16 16 -16 9 0 14 5 12 12 -6 18 -28 21 -28 4z"/>
 <path d="M3080 2781 c0 -12 29 -35 36 -28 11 10 -5 37 -21 37 -8 0 -15 -4 -15 -9z"/>
 <path d="M420 2770 c0 -5 5 -10 10 -10 6 0 10 5 10 10 0 6 -4 10 -10 10 -5 0 -10 -4 -10 -10z"/>
 <path d="M2880 2745 c0 -8 5 -15 10 -15 6 0 10 7 10 15 0 8 -4 15 -10 15 -5 0 -10 -7 -10 -15z"/>
 <path d="M377 2743 c-4 -3 -7 -15 -7 -26 0 -19 1 -20 20 -2 11 10 20 22 20 27 0 10 -24 11 -33 1z"/>
 <path d="M2750 2740 c0 -5 7 -10 15 -10 8 0 15 5 15 10 0 6 -7 10 -15 10 -8 0 -15 -4 -15 -10z"/>
 <path d="M2802 2714 c1 -9 9 -19 16 -22 9 -3 13 2 10 14 -1 9 -9 19 -16 22 -9 3 -13 -2 -10 -14z"/>
 <path d="M333 2693 c-15 -5 -18 -33 -4 -33 8 0 25 30 19 35 -2 1 -9 0 -15 -2z"/>
 <path d="M3067 2693 c-4 -3 -7 -11 -7 -17 0 -6 5 -5 12 2 6 6 9 14 7 17 -3 3 -9 2 -12 -2z"/>
 <path d="M2897 2683 c-13 -12 -7 -23 13 -23 11 0 20 7 20 15 0 15 -21 21 -33 8z"/>
 <path d="M2650 2645 c-14 -25 -7 -47 9 -29 14 14 23 54 13 54 -5 0 -15 -11 -22 -25z"/>
 <path d="M3090 2655 c0 -8 5 -15 10 -15 6 0 10 7 10 15 0 8 -4 15 -10 15 -5 0 -10 -7 -10 -15z"/>
 <path d="M287 2643 c-4 -3 -7 -11 -7 -17 0 -6 5 -5 12 2 6 6 9 14 7 17 -3 3 -9 2 -12 -2z"/>
 <path d="M3142 2621 c-11 -7 -11 -9 2 -14 9 -4 23 -4 32 0 13 5 13 7 2 14 -7 5 -15 9 -18 9 -3 0 -11 -4 -18 -9z"/>
 <path d="M251 2594 c0 -11 3 -14 6 -6 3 7 2 16 -1 19 -3 4 -6 -2 -5 -13z"/>
 <path d="M2690 2536 c0 -9 7 -16 16 -16 17 0 14 22 -4 28 -7 2 -12 -3 -12 -12z"/>
 <path d="M100 2450 c0 -13 11 -13 30 0 12 8 11 10 -7 10 -13 0 -23 -4 -23 -10z"/>
 <path d="M2830 2425 c0 -8 7 -15 15 -15 8 0 15 7 15 15 0 8 -7 15 -15 15 -8 0 -15 -7 -15 -15z"/>
 <path d="M40 2360 c-14 -10 -22 -21 -20 -24 3 -2 16 4 30 14 14 10 22 21 20 24 -3 2 -16 -4 -30 -14z"/>
 <path d="M2940 2353 c1 -13 59 -73 70 -73 17 0 11 14 -19 48 -28 30 -51 41 -51 25z"/>
 <path d="M2500 2340 c0 -5 5 -10 10 -10 6 0 10 5 10 10 0 6 -4 10 -10 10 -5 0 -10 -4 -10 -10z"/>
 <path d="M2590 2310 c0 -5 5 -10 10 -10 6 0 10 5 10 10 0 6 -4 10 -10 10 -5 0 -10 -4 -10 -10z"/>
 <path d="M3070 2185 c0 -8 5 -15 10 -15 6 0 10 -9 10 -19 0 -11 5 -23 11 -27 7 -4 9 1 5 15 -3 11 -9 30 -12 41 -6 23 -24 27 -24 5z"/>
 <path d="M2835 2138 c10 -32 66 -75 65 -50 -1 9 -58 72 -66 72 -3 0 -2 -10 1 -22z"/>
 <path d="M3110 2060 c0 -5 7 -10 15 -10 8 0 15 5 15 10 0 6 -7 10 -15 10 -8 0 -15 -4 -15 -10z"/>
 <path d="M2692 1974 c1 -9 9 -19 16 -22 9 -3 13 2 10 14 -1 9 -9 19 -16 22 -9 3 -13 -2 -10 -14z"/>
 <path d="M3140 1960 c0 -5 7 -10 15 -10 8 0 15 5 15 10 0 6 -7 10 -15 10 -8 0 -15 -4 -15 -10z"/>
 <path d="M2770 1886 c0 -9 7 -16 16 -16 17 0 14 22 -4 28 -7 2 -12 -3 -12 -12z"/>
 <path d="M3160 1870 c0 -5 5 -10 10 -10 6 0 10 5 10 10 0 6 -4 10 -10 10 -5 0 -10 -4 -10 -10z"/>
 <path d="M2200 1789 c0 -11 5 -17 10 -14 6 3 10 13 10 21 0 8 -4 14 -10 14 -5 0 -10 -9 -10 -21z"/>
 <path d="M2480 1780 c0 -5 5 -10 10 -10 6 0 10 5 10 10 0 6 -4 10 -10 10 -5 0 -10 -4 -10 -10z"/>
 <path d="M3180 1780 c0 -5 7 -10 15 -10 8 0 15 5 15 10 0 6 -7 10 -15 10 -8 0 -15 -4 -15 -10z"/>
 <path d="M3082 1628 c6 -18 28 -21 28 -4 0 9 -7 16 -16 16 -9 0 -14 -5 -12 -12z"/>
 <path d="M3256 1498 c4 -13 7 -31 6 -40 -1 -25 14 -23 21 2 7 29 -3 60 -20 60 -10 0 -12 -6 -7 -22z"/>
 <path d="M3075 1379 c-4 -6 -4 -13 -1 -16 8 -8 36 5 36 17 0 13 -27 13 -35 -1z"/>
 <path d="M2257 1343 c-12 -11 -8 -23 8 -23 8 0 15 7 15 15 0 16 -12 20 -23 8z"/>
 <path d="M3270 1330 c0 -5 7 -10 15 -10 8 0 15 5 15 10 0 6 -7 10 -15 10 -8 0 -15 -4 -15 -10z"/>
 <path d="M2270 1270 c0 -5 5 -10 10 -10 6 0 10 5 10 10 0 6 -4 10 -10 10 -5 0 -10 -4 -10 -10z"/>
 <path d="M987 1263 c-4 -3 -7 -11 -7 -17 0 -6 5 -5 12 2 6 6 9 14 7 17 -3 3 -9 2 -12 -2z"/>
 <path d="M2455 1219 c-10 -16 1 -22 26 -14 17 6 19 9 8 16 -19 12 -26 11 -34 -2z"/>
 <path d="M2400 1160 c0 -5 5 -10 10 -10 6 0 10 5 10 10 0 6 -4 10 -10 10 -5 0 -10 -4 -10 -10z"/>
 <path d="M2965 1109 c-4 -6 -4 -13 -1 -16 8 -8 36 5 36 17 0 13 -27 13 -35 -1z"/>
 <path d="M2670 1080 c0 -5 5 -10 10 -10 6 0 10 5 10 10 0 6 -4 10 -10 10 -5 0 -10 -4 -10 -10z"/>
 <path d="M3183 1063 c-17 -36 -6 -44 17 -13 23 29 25 40 8 40 -7 0 -19 -12 -25 -27z"/>
 <path d="M2932 1058 c-16 -16 -15 -38 2 -38 13 0 26 20 26 41 0 13 -14 11 -28 -3z"/>
 <path d="M3370 952 c0 -16 -8 -32 -20 -40 -21 -13 -28 -46 -8 -40 33 11 72 108 43 108 -10 0 -15 -10 -15 -28z"/>
 <path d="M2560 940 c0 -5 5 -10 10 -10 6 0 10 5 10 10 0 6 -4 10 -10 10 -5 0 -10 -4 -10 -10z"/>
 <path d="M3093 915 c-3 -9 -3 -18 0 -21 9 -9 27 6 27 22 0 19 -19 18 -27 -1z"/>
 <path d="M2610 890 c0 -5 5 -10 10 -10 6 0 10 5 10 10 0 6 -4 10 -10 10 -5 0 -10 -4 -10 -10z"/>
 <path d="M2737 863 c-12 -11 -8 -23 8 -23 8 0 15 7 15 15 0 16 -12 20 -23 8z"/>
 <path d="M3013 815 c-3 -9 -3 -19 1 -22 7 -7 36 16 36 28 0 15 -30 10 -37 -6z"/>
 <path d="M3400 755 c0 -8 5 -15 10 -15 6 0 10 7 10 15 0 8 -4 15 -10 15 -5 0 -10 -7 -10 -15z"/>
 <path d="M3223 736 c-25 -26 -30 -46 -12 -46 6 0 13 9 16 20 3 11 12 20 19 20 8 0 14 7 14 15 0 21 -11 18 -37 -9z"/>
 <path d="M2933 735 c-3 -9 -3 -18 0 -21 9 -9 27 6 27 22 0 19 -19 18 -27 -1z"/>
 <path d="M2850 665 c-14 -17 -7 -43 15 -51 20 -8 29 1 19 18 -5 7 -7 21 -6 31 4 21 -11 22 -28 2z"/>
 <path d="M3420 670 c0 -5 7 -10 15 -10 8 0 15 5 15 10 0 6 -7 10 -15 10 -8 0 -15 -4 -15 -10z"/>
 <path d="M3390 610 c0 -5 5 -10 10 -10 6 0 10 5 10 10 0 6 -4 10 -10 10 -5 0 -10 -4 -10 -10z"/>
 <path d="M3071 573 c-34 -30 -39 -43 -16 -43 8 0 15 6 15 14 0 8 11 17 25 20 14 4 25 13 25 21 0 22 -14 18 -49 -12z"/>
 <path d="M2930 546 c0 -9 7 -16 16 -16 9 0 14 5 12 12 -6 18 -28 21 -28 4z"/>
 <path d="M2970 500 c0 -5 5 -10 10 -10 6 0 10 5 10 10 0 6 -4 10 -10 10 -5 0 -10 -4 -10 -10z"/>
 <path d="M2907 463 c-4 -3 -7 -11 -7 -17 0 -6 5 -5 12 2 6 6 9 14 7 17 -3 3 -9 2 -12 -2z"/>
 <path d="M3230 450 c0 -5 5 -10 10 -10 6 0 10 5 10 10 0 6 -4 10 -10 10 -5 0 -10 -4 -10 -10z"/>
 <path d="M3440 340 c0 -5 7 -10 15 -10 8 0 15 5 15 10 0 6 -7 10 -15 10 -8 0 -15 -4 -15 -10z"/>
 <path d="M3380 265 c-7 -9 -10 -18 -7 -22 8 -7 37 15 37 28 0 14 -16 11 -30 -6z"/>
 <path d="M3200 240 c0 -5 5 -10 10 -10 6 0 10 5 10 10 0 6 -4 10 -10 10 -5 0 -10 -4 -10 -10z"/>
 <path d="M3340 220 c0 -5 5 -10 10 -10 6 0 10 5 10 10 0 6 -4 10 -10 10 -5 0 -10 -4 -10 -10z"/>
 <path d="M3447 163 c-13 -12 -7 -33 8 -33 8 0 15 9 15 20 0 20 -11 26 -23 13z"/>
 <path d="M3470 105 c0 -8 5 -15 10 -15 6 0 10 7 10 15 0 8 -4 15 -10 15 -5 0 -10 -7 -10 -15z"/>
 <path d="M3488 3 c7 -3 16 -2 19 1 4 3 -2 6 -13 5 -11 0 -14 -3 -6 -6z"/>
 </g>
<g id="layer2" fill="#e2e1e2" stroke="none">
 <path d="M1210 3156 c0 -20 27 -28 34 -10 9 23 8 24 -14 24 -11 0 -20 -6 -20 -14z"/>
 <path d="M1138 3143 c7 -3 16 -2 19 1 4 3 -2 6 -13 5 -11 0 -14 -3 -6 -6z"/>
 <path d="M1261 3134 c0 -11 3 -14 6 -6 3 7 2 16 -1 19 -3 4 -6 -2 -5 -13z"/>
 <path d="M2198 2973 c7 -3 16 -2 19 1 4 3 -2 6 -13 5 -11 0 -14 -3 -6 -6z"/>
 <path d="M2174 2854 c3 -9 6 -22 6 -30 0 -8 5 -14 10 -14 6 0 10 14 10 30 0 21 -5 30 -16 30 -11 0 -14 -5 -10 -16z"/>
 <path d="M691 2824 c-7 -8 -11 -18 -7 -21 9 -10 36 6 36 22 0 19 -11 19 -29 -1z"/>
 <path d="M747 2673 c-4 -3 -7 -11 -7 -17 0 -6 5 -5 12 2 6 6 9 14 7 17 -3 3 -9 2 -12 -2z"/>
 <path d="M590 2630 c0 -5 5 -10 10 -10 6 0 10 5 10 10 0 6 -4 10 -10 10 -5 0 -10 -4 -10 -10z"/>
 <path d="M781 2604 c0 -11 3 -14 6 -6 3 7 2 16 -1 19 -3 4 -6 -2 -5 -13z"/>
 <path d="M510 2604 c0 -10 31 -36 37 -31 10 10 -6 37 -22 37 -8 0 -15 -3 -15 -6z"/>
 <path d="M701 2534 c0 -11 3 -14 6 -6 3 7 2 16 -1 19 -3 4 -6 -2 -5 -13z"/>
 <path d="M857 2513 c-12 -11 -8 -23 8 -23 8 0 15 7 15 15 0 16 -12 20 -23 8z"/>
 <path d="M2247 2353 c-4 -3 -7 -11 -7 -17 0 -6 5 -5 12 2 6 6 9 14 7 17 -3 3 -9 2 -12 -2z"/>
 <path d="M360 2341 c0 -5 5 -13 10 -16 6 -3 10 -2 10 4 0 5 -4 13 -10 16 -5 3 -10 2 -10 -4z"/>
 <path d="M601 2334 c0 -11 3 -14 6 -6 3 7 2 16 -1 19 -3 4 -6 -2 -5 -13z"/>
 <path d="M1300 2341 c0 -5 5 -13 10 -16 6 -3 10 -2 10 4 0 5 -4 13 -10 16 -5 3 -10 2 -10 -4z"/>
 <path d="M1338 2343 c7 -3 16 -2 19 1 4 3 -2 6 -13 5 -11 0 -14 -3 -6 -6z"/>
 <path d="M1487 2305 c-113 -33 -177 -81 -177 -134 0 -12 -7 -21 -15 -21 -8 0 -15 -6 -15 -14 0 -19 75 -14 98 7 21 20 67 37 95 37 12 0 28 9 35 20 7 11 19 20 27 20 8 0 15 4 15 9 0 5 9 11 21 14 16 4 19 11 14 26 -4 12 -2 21 4 21 17 0 13 27 -5 34 -9 3 -16 6 -17 5 -1 -1 -37 -11 -80 -24z"/>
 <path d="M1013 2265 c0 -14 3 -22 8 -19 5 3 9 11 9 19 0 8 -4 16 -9 19 -5 3 -8 -5 -8 -19z"/>
 <path d="M881 2264 c0 -11 3 -14 6 -6 3 7 2 16 -1 19 -3 4 -6 -2 -5 -13z"/>
 <path d="M2430 2267 c0 -9 -6 -18 -12 -20 -10 -4 -10 -6 0 -6 10 -1 9 -5 -3 -18 -21 -20 -15 -71 11 -106 14 -18 28 -24 61 -24 24 0 49 -5 55 -11 14 -14 38 -16 38 -4 0 5 -19 16 -42 26 -24 11 -50 25 -59 33 -9 7 -23 11 -32 8 -23 -10 -28 9 -11 43 19 40 23 84 7 89 -7 3 -13 -2 -13 -10z"/>
 <path d="M910 2260 c0 -5 7 -10 15 -10 8 0 15 5 15 10 0 6 -7 10 -15 10 -8 0 -15 -4 -15 -10z"/>
 <path d="M1778 2173 c-15 -10 -30 -30 -33 -45 -7 -28 -25 -39 -25 -15 0 22 -45 54 -85 61 -62 11 -125 -26 -145 -85 l-16 -44 -45 3 c-36 2 -58 -4 -105 -31 -52 -29 -63 -40 -92 -100 -26 -53 -38 -68 -60 -72 -15 -4 -34 -10 -42 -14 -21 -11 -90 -103 -90 -120 0 -8 -22 -38 -50 -67 -28 -29 -50 -62 -50 -74 0 -12 -5 -30 -10 -40 -12 -23 7 -73 26 -66 8 3 11 0 7 -10 -3 -8 1 -14 11 -14 10 0 16 9 17 23 1 19 3 17 15 -10 11 -26 20 -33 42 -32 40 1 62 12 75 39 8 15 23 26 39 28 14 2 34 12 43 22 16 17 16 24 2 85 l-15 66 26 10 c15 6 38 11 52 12 17 1 29 11 37 30 7 15 24 32 38 37 14 5 25 16 25 24 0 18 22 26 49 19 22 -5 30 12 9 19 -7 3 -6 12 6 30 16 24 21 26 74 21 72 -6 177 13 222 41 30 17 52 21 145 22 135 2 131 2 237 0 86 -1 87 -1 92 25 3 15 2 37 -2 50 -14 45 -47 109 -56 109 -5 0 -19 11 -32 25 -14 15 -34 25 -51 25 -34 -1 -73 -31 -73 -57 0 -14 -6 -11 -25 14 -54 68 -130 91 -187 56z"/>
 <path d="M2570 1950 c0 -5 5 -10 10 -10 6 0 10 5 10 10 0 6 -4 10 -10 10 -5 0 -10 -4 -10 -10z"/>
 <path d="M2290 1911 c0 -12 29 -35 36 -28 11 10 -5 37 -21 37 -8 0 -15 -4 -15 -9z"/>
 <path d="M2236 1879 c-8 -42 -8 -49 4 -49 6 0 10 9 10 19 0 11 5 21 11 23 11 4 2 38 -11 38 -4 0 -10 -14 -14 -31z"/>
 <path d="M2350 1900 c0 -13 37 -50 50 -50 21 0 9 26 -20 42 -17 9 -30 13 -30 8z"/>
 <path d="M2080 1875 c0 -8 5 -15 10 -15 6 0 10 7 10 15 0 8 -4 15 -10 15 -5 0 -10 -7 -10 -15z"/>
 <path d="M2427 1863 c-15 -15 -5 -35 28 -54 19 -12 35 -26 35 -32 1 -7 17 -30 37 -52 20 -22 33 -32 30 -22 -4 10 -7 30 -7 43 0 13 -4 24 -9 24 -15 0 -85 74 -83 88 3 13 -20 17 -31 5z"/>
 <path d="M2020 1810 c0 -5 5 -10 10 -10 6 0 10 5 10 10 0 6 -4 10 -10 10 -5 0 -10 -4 -10 -10z"/>
 <path d="M1787 1753 c-11 -10 -8 -33 4 -33 6 0 17 6 24 14 12 12 12 15 -1 20 -19 7 -19 7 -27 -1z"/>
 <path d="M2220 1695 c0 -8 13 -21 30 -30 19 -10 27 -20 24 -30 -4 -10 0 -15 14 -15 11 0 27 -7 36 -15 19 -19 36 -19 36 0 0 20 -69 85 -91 85 -10 0 -21 5 -24 10 -9 15 -25 12 -25 -5z"/>
 <path d="M2560 1665 c0 -17 2 -18 24 -9 23 9 20 24 -4 24 -11 0 -20 -7 -20 -15z"/>
 <path d="M1690 1660 c0 -5 5 -10 10 -10 6 0 10 5 10 10 0 6 -4 10 -10 10 -5 0 -10 -4 -10 -10z"/>
 <path d="M2577 1642 c-4 -4 -4 -24 -1 -43 3 -19 6 -42 6 -51 -1 -10 6 -18 15 -18 9 0 13 6 10 14 -3 7 -2 17 2 22 13 14 22 74 12 74 -5 0 -16 3 -24 6 -8 3 -17 1 -20 -4z"/>
 <path d="M890 1560 c0 -5 7 -10 15 -10 8 0 15 5 15 10 0 6 -7 10 -15 10 -8 0 -15 -4 -15 -10z"/>
 <path d="M1627 1563 c-4 -3 -7 -11 -7 -17 0 -6 5 -5 12 2 6 6 9 14 7 17 -3 3 -9 2 -12 -2z"/>
 <path d="M2355 1550 c-3 -5 -1 -18 4 -29 8 -14 7 -22 -3 -31 -12 -9 -13 -7 -9 9 4 16 1 21 -15 21 -29 0 -39 -20 -17 -36 18 -13 18 -25 -1 -98 -10 -40 12 -32 42 16 25 39 36 101 26 141 -5 19 -17 22 -27 7z"/>
 <path d="M2580 1491 c0 -11 4 -23 10 -26 10 -6 8 -10 -23 -73 -9 -19 -17 -46 -17 -60 0 -27 1 -27 17 6 12 24 18 30 24 20 6 -8 9 0 9 23 0 19 5 40 11 46 16 16 2 83 -16 83 -8 0 -15 -9 -15 -19z"/>
 <path d="M1460 1470 c0 -5 7 -10 15 -10 8 0 15 5 15 10 0 6 -7 10 -15 10 -8 0 -15 -4 -15 -10z"/>
 <path d="M2510 1279 c-14 -24 -9 -32 14 -23 17 7 23 44 6 44 -5 0 -14 -9 -20 -21z"/>
 <path d="M730 1201 c0 -5 5 -13 10 -16 6 -3 10 -2 10 4 0 5 -4 13 -10 16 -5 3 -10 2 -10 -4z"/>
 <path d="M1671 976 c-8 -9 -19 -15 -25 -13 -6 2 -17 -5 -26 -15 -14 -18 -21 -18 -100 -7 -81 11 -87 10 -137 -12 -29 -13 -53 -28 -53 -32 0 -21 -46 -67 -74 -73 -42 -9 -56 -22 -56 -53 0 -32 16 -51 43 -51 10 0 44 -27 75 -60 l58 -60 67 0 c66 0 69 1 107 40 22 22 46 40 54 40 9 0 26 -14 38 -31 31 -42 61 -56 151 -68 77 -11 127 -3 127 19 0 5 6 10 14 10 8 0 27 20 43 45 27 43 59 63 46 28 -5 -12 -2 -15 10 -10 10 4 17 1 17 -6 0 -7 14 -25 31 -40 34 -30 90 -36 146 -17 41 15 66 84 61 177 -3 63 -6 71 -39 105 -47 48 -123 88 -166 88 -19 0 -48 -7 -65 -16 -29 -15 -33 -15 -62 2 -44 27 -265 34 -285 10z"/>
 <path d="M814 915 c-8 -20 -1 -27 23 -23 18 3 18 4 0 21 -15 15 -18 16 -23 2z"/>
 <path d="M887 763 c-12 -11 -8 -23 8 -23 8 0 15 7 15 15 0 16 -12 20 -23 8z"/>
 <path d="M2370 716 c0 -9 7 -16 16 -16 9 0 14 5 12 12 -6 18 -28 21 -28 4z"/>
 <path d="M2501 704 c0 -11 3 -14 6 -6 3 7 2 16 -1 19 -3 4 -6 -2 -5 -13z"/>
 <path d="M960 690 c0 -5 5 -10 10 -10 6 0 10 5 10 10 0 6 -4 10 -10 10 -5 0 -10 -4 -10 -10z"/>
 <path d="M1288 633 c-22 -5 -24 -23 -3 -23 8 0 15 -7 15 -15 0 -8 4 -15 9 -15 5 0 9 14 9 30 -1 17 -4 29 -7 29 -3 -1 -14 -3 -23 -6z"/>
 <path d="M2420 625 c0 -8 5 -15 10 -15 6 0 10 7 10 15 0 8 -4 15 -10 15 -5 0 -10 -7 -10 -15z"/>
 <path d="M318 541 c-26 -26 -22 -41 11 -41 37 0 46 13 29 40 -15 24 -18 24 -40 1z"/>
 <path d="M1510 520 c0 -5 5 -10 10 -10 6 0 10 5 10 10 0 6 -4 10 -10 10 -5 0 -10 -4 -10 -10z"/>
 <path d="M1630 515 c0 -8 5 -15 10 -15 6 0 10 7 10 15 0 8 -4 15 -10 15 -5 0 -10 -7 -10 -15z"/>
 <path d="M360 490 c-6 -11 -17 -20 -26 -20 -11 0 -13 -7 -8 -27 9 -36 13 -40 23 -24 5 8 11 9 15 3 8 -14 56 -12 56 2 0 7 -6 18 -12 25 -11 11 -10 13 5 8 29 -11 21 32 -9 43 -33 13 -32 13 -44 -10z"/>
 <path d="M1120 440 c0 -5 5 -10 10 -10 6 0 10 5 10 10 0 6 -4 10 -10 10 -5 0 -10 -4 -10 -10z"/>
 <path d="M378 393 c6 -2 10 -9 7 -14 -3 -5 -15 -3 -25 4 -24 14 -44 4 -68 -36 -17 -27 -16 -29 8 -47 27 -21 21 -27 -10 -10 -23 12 -50 3 -50 -16 0 -19 30 -30 39 -15 5 8 12 7 26 -3 17 -12 17 -15 -11 -50 -16 -20 -32 -36 -36 -36 -13 0 -8 -34 6 -53 8 -10 11 -27 8 -39 -4 -16 -2 -20 10 -15 10 3 20 -4 29 -21 20 -39 27 -42 109 -41 51 0 69 3 55 9 -11 5 -14 9 -7 9 6 1 12 8 12 16 0 10 -10 13 -35 11 -28 -2 -35 1 -35 16 0 10 -5 18 -11 18 -16 0 -39 -26 -39 -44 0 -9 -6 -13 -14 -10 -21 8 1 69 30 85 13 7 24 18 24 25 0 7 5 14 12 16 7 3 10 29 9 79 -1 40 -3 81 -3 89 0 36 -20 80 -36 79 -11 0 -12 -2 -4 -6z"/>
 <path d="M440 300 c0 -5 7 -10 15 -10 8 0 15 5 15 10 0 6 -7 10 -15 10 -8 0 -15 -4 -15 -10z"/>
 <path d="M1970 280 c0 -5 5 -10 10 -10 6 0 10 5 10 10 0 6 -4 10 -10 10 -5 0 -10 -4 -10 -10z"/>
 <path d="M1960 140 c0 -5 7 -10 15 -10 8 0 15 5 15 10 0 6 -7 10 -15 10 -8 0 -15 -4 -15 -10z"/>
 </g>
<g id="layer3" fill="#710b6e" stroke="none">
 <path d="M760 3748 c-52 -54 -105 -109 -117 -120 -13 -12 -23 -27 -23 -34 0 -6 -11 -19 -25 -28 -14 -9 -25 -23 -25 -30 0 -8 -16 -29 -35 -47 -19 -19 -35 -39 -35 -45 0 -6 -7 -17 -15 -24 -9 -7 -45 -54 -80 -104 -116 -162 -146 -197 -367 -428 -27 -27 -38 -48 -38 -69 l0 -30 31 22 c17 12 33 28 36 36 7 18 57 77 110 130 24 24 43 47 43 52 0 5 11 18 25 29 14 11 25 23 25 26 0 8 22 33 83 94 26 27 47 52 47 55 0 4 21 36 48 70 26 34 61 82 77 106 17 25 51 67 76 95 25 28 53 62 62 76 9 14 72 80 139 148 123 122 123 122 88 121 -31 -1 -46 -13 -130 -101z"/>
 <path d="M2508 3827 c12 -13 22 -28 22 -34 0 -5 9 -18 20 -28 11 -10 20 -24 20 -31 0 -7 6 -17 14 -21 7 -4 19 -25 25 -45 7 -20 22 -52 34 -70 13 -18 33 -53 45 -78 12 -25 26 -52 31 -60 5 -8 17 -35 26 -60 10 -25 30 -72 46 -104 16 -32 29 -69 29 -81 0 -29 20 -86 36 -106 20 -22 17 -42 -13 -103 -21 -43 -30 -53 -40 -44 -7 6 -13 14 -13 19 0 17 -45 79 -57 79 -19 0 -16 -13 15 -56 31 -42 62 -101 62 -116 0 -6 8 -22 19 -36 10 -15 24 -44 32 -64 16 -45 45 -54 34 -10 -3 15 -13 34 -21 43 -8 8 -14 21 -14 27 0 6 -9 27 -20 47 -11 20 -20 38 -20 40 0 2 28 -10 62 -28 57 -29 63 -36 71 -71 4 -22 14 -47 22 -56 8 -9 15 -21 15 -27 0 -19 32 -74 46 -80 8 -3 14 -18 14 -33 0 -15 7 -33 15 -40 8 -7 12 -16 9 -21 -8 -13 15 -49 32 -49 16 0 74 55 74 70 0 5 -12 10 -26 12 -19 2 -32 14 -48 43 -11 22 -23 42 -26 45 -25 24 -68 95 -63 106 4 11 10 11 35 -4 54 -31 163 -132 160 -147 -2 -9 5 -15 17 -15 26 0 148 -138 223 -252 68 -104 137 -245 178 -367 94 -278 93 -685 -1 -966 -50 -147 -160 -365 -185 -365 -7 0 -15 -11 -18 -24 -9 -37 -78 -121 -193 -234 l-105 -103 69 -76 c38 -42 74 -78 79 -80 5 -2 42 27 82 63 60 55 75 64 87 54 12 -10 13 -16 4 -27 -9 -10 -9 -17 -1 -25 18 -18 50 16 34 35 -7 8 -9 16 -6 20 3 3 1 14 -5 25 -8 16 -2 28 38 73 95 107 229 325 287 464 54 133 54 132 54 682 0 407 -3 523 -14 566 -50 191 -208 459 -380 644 -42 44 -76 85 -76 90 0 4 -13 14 -29 21 -16 7 -42 26 -58 41 -30 30 -128 103 -153 114 -8 4 -44 25 -80 48 -85 54 -141 82 -148 75 -10 -11 -55 77 -54 106 0 16 -10 48 -23 71 -13 23 -34 62 -46 87 -12 25 -26 53 -30 62 -5 10 -9 24 -9 32 0 7 -7 19 -15 26 -8 7 -15 20 -16 29 0 9 -14 36 -30 61 -16 25 -33 55 -39 68 -5 12 -16 22 -24 22 -9 0 -13 6 -10 15 3 8 -4 28 -15 44 -12 16 -21 33 -21 38 0 18 -46 53 -70 53 l-23 0 21 -23z"/>
 <path d="M3438 3843 c7 -3 16 -2 19 1 4 3 -2 6 -13 5 -11 0 -14 -3 -6 -6z"/>
 <path d="M3460 3730 c0 -5 7 -10 15 -10 8 0 15 5 15 10 0 6 -7 10 -15 10 -8 0 -15 -4 -15 -10z"/>
 <path d="M3391 3612 c-1 -8 -8 -11 -20 -7 -22 7 -38 -25 -24 -47 4 -7 6 -21 5 -30 -4 -20 35 -33 68 -23 15 5 20 13 17 26 -3 12 4 25 21 38 34 25 20 41 -17 20 -27 -16 -28 -16 -38 10 -6 14 -11 20 -12 13z"/>
 <path d="M1699 3516 c-2 -2 -55 -6 -117 -9 -62 -4 -117 -9 -123 -13 -6 -3 -32 -8 -58 -9 -26 -2 -81 -16 -122 -30 -41 -15 -83 -29 -94 -32 -38 -9 -85 -38 -85 -51 0 -15 25 -10 72 14 32 17 248 73 303 80 22 2 95 6 163 8 119 3 152 11 138 35 -7 10 -67 16 -77 7z"/>
 <path d="M1817 3513 c-22 -22 0 -28 103 -29 82 -1 110 2 110 11 0 7 -7 16 -16 19 -21 8 -189 8 -197 -1z"/>
 <path d="M2050 3482 c0 -11 178 -72 208 -72 10 0 22 -4 28 -8 11 -10 113 -52 125 -52 5 0 9 7 9 15 0 8 -7 15 -15 15 -8 0 -15 4 -15 9 0 5 -13 12 -30 16 -16 4 -32 11 -35 16 -4 5 -16 9 -29 9 -12 0 -26 4 -31 9 -32 28 -215 65 -215 43z"/>
 <path d="M3414 3463 c4 -15 18 -36 32 -46 13 -10 24 -27 24 -38 0 -10 7 -19 15 -19 22 0 22 -2 -23 85 -26 49 -58 62 -48 18z"/>
 <path d="M1045 3357 c-61 -37 -145 -94 -177 -121 -20 -17 -53 -44 -74 -61 -68 -56 -104 -91 -104 -103 0 -22 17 -12 81 46 67 62 182 148 261 197 27 17 48 36 48 43 0 15 -9 15 -35 -1z"/>
 <path d="M2430 3348 c1 -7 26 -29 56 -48 30 -19 70 -51 89 -70 19 -19 40 -40 47 -46 7 -5 20 -21 29 -35 23 -33 33 -19 14 19 -21 41 -162 172 -185 172 -11 0 -22 5 -25 10 -9 14 -25 12 -25 -2z"/>
 <path d="M2690 3101 c0 -5 7 -14 15 -21 16 -14 18 -10 9 14 -6 17 -24 22 -24 7z"/>
 <path d="M583 2975 c-68 -69 -86 -95 -64 -95 11 0 151 151 151 163 0 17 -19 2 -87 -68z"/>
 <path d="M3400 2890 c0 -5 5 -10 10 -10 6 0 10 5 10 10 0 6 -4 10 -10 10 -5 0 -10 -4 -10 -10z"/>
 <path d="M432 2822 c-57 -58 -91 -98 -114 -134 -10 -16 -25 -28 -33 -28 -8 0 -15 -4 -15 -9 0 -5 -3 -16 -6 -25 -4 -11 -1 -16 10 -16 9 0 16 3 16 8 0 12 57 72 68 72 5 0 16 8 23 19 8 10 38 46 67 80 28 34 52 66 52 72 0 20 -22 7 -68 -39z"/>
 <path d="M2694 2718 c-9 -18 -30 -57 -46 -86 -16 -30 -27 -60 -24 -67 2 -7 22 -19 43 -26 122 -40 398 -289 420 -378 3 -14 9 -30 13 -36 11 -15 26 -73 28 -112 2 -25 32 -32 32 -8 0 8 -9 35 -21 60 -29 61 -18 80 14 25 36 -62 84 -186 108 -278 26 -101 37 -293 18 -328 -10 -19 -10 -30 -2 -44 8 -12 9 -36 2 -81 -25 -176 -104 -361 -204 -479 -25 -30 -61 -72 -78 -93 -18 -21 -58 -58 -89 -83 -53 -41 -70 -67 -50 -76 4 -1 33 -33 65 -70 32 -38 63 -68 69 -68 23 0 218 179 218 201 0 3 16 24 36 45 64 70 162 248 199 359 35 110 46 149 60 230 37 212 9 476 -72 694 -71 191 -237 419 -402 550 -50 40 -91 79 -91 87 0 8 -9 13 -22 12 -13 0 -55 18 -94 40 -87 51 -108 53 -130 10z"/>
 <path d="M2890 2731 c0 -5 7 -14 15 -21 13 -10 15 -9 15 9 0 12 -6 21 -15 21 -8 0 -15 -4 -15 -9z"/>
 <path d="M204 2566 c-17 -18 -39 -45 -49 -59 -9 -14 -25 -29 -36 -32 -27 -9 -24 -25 5 -25 19 0 35 14 66 57 23 32 48 61 56 66 8 4 14 12 14 17 0 19 -26 8 -56 -24z"/>
 <path d="M53 2408 c-33 -36 -53 -69 -53 -90 0 -7 16 5 35 27 20 22 42 47 50 56 16 17 20 39 7 39 -4 0 -22 -15 -39 -32z"/>
 <path d="M2452 2255 c-23 -47 -42 -92 -42 -100 0 -8 12 -18 28 -21 119 -29 299 -177 369 -304 56 -102 68 -152 68 -295 0 -146 -17 -214 -78 -313 -34 -54 -143 -172 -159 -172 -5 0 -27 -18 -50 -39 l-41 -40 69 -75 c38 -42 74 -76 82 -76 22 0 141 96 192 154 246 281 288 653 108 970 -89 155 -216 275 -380 357 -112 56 -115 55 -166 -46z"/>
 <path d="M3150 1936 c0 -7 7 -38 16 -67 8 -30 20 -71 26 -91 6 -22 18 -38 26 -38 9 0 12 6 8 16 -3 8 -13 45 -21 82 -8 37 -17 77 -20 90 -6 24 -35 31 -35 8z"/>
 <path d="M2262 1883 c-33 -48 -93 -173 -87 -183 4 -6 20 -10 37 -10 46 0 97 -29 129 -73 24 -33 29 -50 29 -99 0 -35 -7 -75 -16 -94 -16 -34 -82 -94 -103 -94 -6 0 -11 -4 -11 -8 0 -11 140 -167 150 -167 5 0 29 14 54 32 54 38 108 116 136 197 69 202 -47 439 -249 511 -24 8 -45 15 -47 15 -1 0 -11 -12 -22 -27z"/>
 <path d="M3221 1704 c0 -11 3 -14 6 -6 3 7 2 16 -1 19 -3 4 -6 -2 -5 -13z"/>
 <path d="M3250 1550 c0 -5 7 -10 15 -10 8 0 15 5 15 10 0 6 -7 10 -15 10 -8 0 -15 -4 -15 -10z"/>
 <path d="M3260 1500 c0 -5 5 -10 10 -10 6 0 10 5 10 10 0 6 -4 10 -10 10 -5 0 -10 -4 -10 -10z"/>
 <path d="M3392 848 c6 -18 28 -21 28 -4 0 9 -7 16 -16 16 -9 0 -14 -5 -12 -12z"/>
 <path d="M3400 800 c0 -11 7 -20 15 -20 8 0 15 9 15 20 0 11 -7 20 -15 20 -8 0 -15 -9 -15 -20z"/>
 <path d="M3443 194 c-3 -9 -2 -19 3 -23 5 -3 9 -25 9 -49 -1 -24 2 -45 7 -48 4 -3 5 -18 1 -34 -5 -27 -3 -30 22 -30 l27 0 -7 73 c-4 39 -12 84 -18 100 -13 30 -34 36 -44 11z"/>
 </g>
<g id="layer4" fill="#050104" stroke="none">
 <path d="M777 3726 c-70 -68 -127 -128 -127 -134 0 -6 -22 -34 -48 -64 -27 -29 -89 -107 -137 -173 -49 -66 -95 -124 -102 -128 -7 -4 -13 -15 -13 -23 0 -8 -13 -20 -30 -25 -19 -7 -30 -18 -30 -30 0 -11 -7 -22 -16 -26 -8 -3 -30 -27 -47 -53 -18 -26 -62 -80 -99 -121 -37 -41 -81 -90 -97 -109 l-31 -34 0 -242 0 -243 60 59 c33 32 60 61 60 65 0 3 13 18 30 32 16 13 30 29 30 33 0 5 22 32 50 59 27 28 50 53 50 57 0 3 11 15 24 25 14 11 46 47 71 82 26 34 68 79 93 101 26 21 54 48 62 60 22 31 210 216 220 216 5 0 13 6 17 14 4 8 35 36 68 62 33 27 69 57 79 66 11 10 25 18 31 18 7 0 19 8 28 18 20 22 182 103 274 137 90 33 201 53 368 66 100 7 135 7 153 -3 19 -10 27 -9 44 1 29 18 176 15 222 -4 19 -8 54 -17 78 -19 45 -4 136 -33 153 -47 5 -5 16 -9 25 -9 17 0 80 -28 90 -39 10 -12 88 -51 101 -51 15 0 52 -32 85 -72 11 -12 28 -28 39 -34 11 -6 26 -23 35 -37 21 -37 71 -108 91 -132 22 -26 51 -76 84 -145 15 -30 31 -62 36 -70 5 -8 12 -22 16 -30 3 -8 14 -33 23 -55 10 -22 24 -57 31 -79 11 -29 37 -58 110 -118 299 -247 468 -612 469 -1009 0 -117 -18 -270 -39 -329 -5 -14 -17 -52 -27 -85 -9 -33 -26 -77 -36 -98 -20 -41 -20 -135 2 -191 5 -15 10 -42 10 -59 0 -50 19 -107 36 -107 31 0 148 222 203 385 94 281 95 688 1 966 -57 169 -156 352 -258 478 -67 82 -144 161 -158 161 -8 0 -38 -25 -67 -57 -53 -55 -77 -63 -77 -23 0 10 -4 22 -10 25 -5 3 -10 19 -10 35 0 16 -8 35 -18 42 -22 16 -82 137 -82 165 0 26 -47 67 -95 84 -19 7 -35 17 -35 21 0 5 11 31 25 58 14 27 25 56 25 64 0 8 -11 36 -25 62 -14 26 -25 59 -25 74 0 14 -11 48 -23 76 -13 27 -34 74 -47 104 -12 30 -26 62 -31 70 -5 8 -21 38 -35 65 -14 28 -36 68 -49 90 -14 22 -25 50 -25 62 0 12 -10 30 -23 40 -12 10 -27 29 -33 43 -6 14 -24 40 -39 58 l-27 32 -802 0 -803 0 -126 -124z"/>
 <path d="M3440 3843 c0 -5 7 -33 15 -63 18 -67 19 -147 2 -180 -10 -20 -19 -24 -45 -22 -33 4 -40 -6 -20 -26 6 -6 11 -25 10 -42 0 -17 4 -30 11 -30 14 0 63 -101 73 -149 8 -44 7 -182 -1 -224 -13 -61 -38 -132 -57 -159 -10 -14 -18 -33 -18 -41 0 -8 -7 -20 -16 -27 -42 -36 -39 -47 41 -133 143 -153 278 -366 350 -549 20 -51 42 -106 50 -123 13 -26 15 83 15 873 l0 902 -205 0 c-113 0 -205 -3 -205 -7z"/>
 <path d="M3104 2130 c4 -24 11 -49 16 -55 5 -6 12 -31 16 -55 4 -25 11 -54 17 -65 6 -11 16 -45 23 -75 7 -30 24 -104 39 -165 14 -60 27 -119 29 -130 1 -11 5 -27 8 -35 18 -46 28 -87 28 -116 0 -24 5 -34 15 -34 13 0 15 21 15 129 0 70 -7 166 -15 212 -27 155 -106 349 -166 404 l-32 30 7 -45z"/>
 <path d="M2073 1416 c4 -10 0 -12 -14 -9 -13 4 -19 0 -19 -11 0 -9 5 -16 12 -16 7 0 5 -5 -4 -12 -9 -7 -18 -22 -20 -33 -2 -12 -10 -19 -21 -17 -9 2 -17 -2 -17 -9 0 -9 -3 -9 -14 0 -10 8 -15 9 -18 1 -5 -15 -38 -1 -38 16 0 18 -22 18 -65 0 -31 -13 -36 -13 -45 2 -9 16 -11 16 -24 -1 -10 -12 -15 -14 -18 -6 -5 15 -38 5 -38 -11 0 -6 10 -14 22 -19 15 -5 18 -10 9 -15 -6 -4 -18 -2 -26 4 -8 6 -20 8 -27 4 -7 -4 -25 -7 -40 -6 -32 3 -36 -5 -11 -23 15 -11 14 -14 -15 -29 -28 -15 -32 -15 -32 -1 0 8 -7 15 -16 15 -10 0 -14 -6 -11 -14 4 -10 1 -13 -9 -9 -10 4 -14 -2 -14 -21 0 -16 -6 -26 -15 -26 -8 0 -15 -4 -15 -10 0 -5 7 -10 15 -10 8 0 15 5 15 10 0 6 7 10 15 10 8 0 15 5 15 11 0 5 5 7 12 3 8 -5 4 -13 -11 -26 -13 -10 -21 -24 -18 -32 3 -8 -1 -20 -8 -26 -12 -10 -17 -7 -27 16 -16 39 -16 38 -33 24 -17 -14 -20 -30 -4 -30 6 0 17 -7 25 -15 20 -20 68 -19 85 1 10 12 10 17 0 23 -9 6 -8 11 4 21 12 10 15 10 15 -4 0 -9 8 -16 18 -17 13 0 11 -3 -6 -10 -17 -6 -22 -15 -20 -31 3 -25 7 -25 93 -7 63 13 103 13 121 -2 11 -9 17 -9 28 0 10 8 16 9 21 1 4 -6 28 -10 53 -10 26 0 107 -3 180 -5 72 -3 132 -2 132 3 0 4 13 8 30 7 21 0 43 -13 76 -44 36 -34 51 -42 63 -34 15 10 71 -13 71 -29 0 -5 14 -8 30 -8 45 0 130 82 130 126 0 27 -4 33 -28 39 -15 3 -56 -1 -90 -9 l-62 -14 -21 29 c-12 17 -28 29 -38 28 -9 -1 -24 1 -33 5 -9 4 -26 3 -37 -4 -14 -7 -21 -7 -21 0 0 5 -7 10 -15 10 -23 0 -72 55 -80 89 -4 17 -11 33 -16 36 -5 4 -9 14 -9 23 0 10 -9 25 -20 35 -11 9 -17 22 -15 29 3 7 -11 23 -30 36 -39 25 -70 29 -62 8z"/>
 <path d="M1480 1205 c0 -8 -9 -15 -20 -15 -11 0 -20 -6 -20 -14 0 -9 12 -13 40 -12 25 0 40 5 40 13 0 7 -4 13 -10 13 -5 0 -10 7 -10 15 0 8 -4 15 -10 15 -5 0 -10 -7 -10 -15z"/>
 <path d="M950 1179 c0 -6 9 -13 20 -16 11 -3 20 -12 20 -19 0 -8 7 -14 15 -14 21 0 18 11 -9 38 -26 24 -46 29 -46 11z"/>
 <path d="M1030 1181 c0 -5 5 -13 10 -16 6 -3 10 -2 10 4 0 5 -4 13 -10 16 -5 3 -10 2 -10 -4z"/>
 <path d="M1270 1155 c0 -8 7 -15 15 -15 8 0 15 7 15 15 0 8 -7 15 -15 15 -8 0 -15 -7 -15 -15z"/>
 <path d="M1373 1158 c2 -7 10 -13 17 -13 7 0 15 6 18 13 2 7 -5 12 -18 12 -13 0 -20 -5 -17 -12z"/>
 <path d="M1423 1133 c-23 -16 -31 -43 -13 -43 6 0 10 7 10 15 0 8 9 15 20 15 11 0 20 7 20 15 0 19 -9 18 -37 -2z"/>
 <path d="M1037 1133 c-4 -3 -7 -15 -7 -25 0 -16 3 -16 20 -6 11 7 20 18 20 25 0 14 -22 18 -33 6z"/>
 <path d="M1190 1115 c0 -8 5 -15 10 -15 6 0 10 7 10 15 0 8 -4 15 -10 15 -5 0 -10 -7 -10 -15z"/>
 <path d="M1340 1115 c0 -8 -4 -15 -10 -15 -5 0 -10 -7 -10 -16 0 -13 6 -15 28 -9 38 9 48 21 32 40 -16 19 -40 20 -40 0z"/>
 <path d="M1090 1099 c0 -11 5 -17 10 -14 6 3 10 13 10 21 0 8 -4 14 -10 14 -5 0 -10 -9 -10 -21z"/>
 <path d="M1150 1095 c0 -8 5 -15 10 -15 6 0 10 7 10 15 0 8 -4 15 -10 15 -5 0 -10 -7 -10 -15z"/>
 <path d="M1417 1073 c-13 -13 -7 -21 13 -16 11 3 20 9 20 14 0 10 -24 12 -33 2z"/>
 <path d="M1060 1045 c0 -8 7 -15 15 -15 8 0 15 7 15 15 0 8 -7 15 -15 15 -8 0 -15 -7 -15 -15z"/>
 <path d="M3840 1018 c0 -7 -9 -31 -19 -53 -11 -22 -29 -65 -41 -95 -29 -76 -36 -91 -106 -210 -73 -126 -122 -198 -181 -264 -40 -45 -44 -53 -37 -85 3 -20 6 -60 5 -88 -1 -32 2 -53 8 -53 6 0 11 -17 11 -39 0 -21 3 -59 6 -85 l7 -46 178 0 179 0 0 515 c0 283 -2 515 -5 515 -3 0 -5 -6 -5 -12z"/>
 <path d="M2545 532 c-15 -13 -97 -41 -130 -45 -75 -8 -111 -47 -62 -67 19 -8 311 -58 377 -65 42 -4 80 -17 80 -26 0 -5 7 -9 15 -9 8 0 15 7 15 15 0 8 9 15 19 15 11 0 21 9 25 23 8 32 -3 67 -22 67 -8 0 -40 20 -70 45 -64 53 -83 59 -139 47 -23 -5 -47 -6 -54 -1 -18 11 -42 11 -54 1z"/>
 </g>
<g id="layer5" fill="#b7b7b7" stroke="none">
 <path d="M1385 3198 c-38 -6 -101 -11 -140 -11 -50 -2 -75 -7 -89 -19 -10 -10 -22 -15 -26 -13 -21 13 -161 -60 -179 -94 -6 -10 -25 -26 -43 -35 -73 -37 -105 -58 -159 -103 -66 -57 -129 -134 -129 -158 0 -18 -76 -116 -114 -147 -11 -9 -17 -20 -13 -24 4 -4 -4 -22 -18 -40 -14 -18 -25 -36 -25 -39 0 -3 -13 -17 -28 -30 -15 -13 -34 -36 -42 -52 -8 -15 -27 -50 -42 -76 -16 -26 -28 -54 -28 -61 0 -8 -7 -16 -15 -20 -8 -3 -15 -12 -15 -21 0 -8 -4 -23 -9 -33 -5 -9 -18 -37 -29 -62 -11 -25 -27 -60 -36 -79 -9 -19 -16 -41 -16 -48 0 -17 -31 -76 -42 -81 -5 -2 -8 -14 -8 -27 0 -12 -7 -39 -15 -60 -9 -20 -13 -45 -10 -54 3 -10 -1 -24 -10 -31 -8 -7 -15 -23 -15 -37 0 -34 -26 -88 -72 -152 -17 -22 -18 -77 -18 -807 l0 -784 191 0 c104 0 188 4 185 8 -2 4 -1 14 4 22 7 12 12 11 30 -5 22 -19 41 -20 769 -20 645 0 746 2 743 14 -5 24 19 60 50 75 15 8 28 10 28 5 0 -17 18 -9 23 10 10 40 157 84 280 84 26 0 47 4 47 9 0 18 -53 66 -96 88 -45 22 -50 22 -183 12 -75 -5 -160 -7 -189 -3 -55 8 -169 6 -309 -4 -47 -3 -89 -2 -100 4 -10 5 -34 12 -54 16 -47 7 -231 118 -278 166 -55 57 -66 72 -90 122 -12 25 -25 47 -30 49 -4 2 -17 24 -29 51 -12 26 -35 55 -51 65 -15 9 -26 22 -24 29 4 11 -12 50 -42 103 -18 32 -26 98 -12 103 6 2 5 19 -5 47 -10 33 -21 46 -36 48 -27 4 -52 38 -52 72 0 14 -5 31 -11 37 -5 5 -9 34 -7 63 3 49 5 54 32 61 15 4 37 16 47 25 16 15 25 16 58 5 28 -8 52 -9 85 -1 48 11 71 6 79 -14 8 -21 57 -29 71 -13 6 8 37 18 69 21 47 5 65 12 89 37 27 27 35 29 73 23 24 -3 51 -1 62 5 11 5 43 12 70 15 28 3 66 14 84 25 19 12 41 23 49 27 58 22 65 52 19 93 -48 45 -35 60 45 54 54 -5 66 -3 66 9 0 20 36 52 49 43 18 -11 49 5 72 36 17 24 18 33 9 44 -16 19 -57 19 -90 0 -14 -8 -38 -14 -53 -15 -25 0 -27 2 -17 20 6 11 20 20 31 20 11 0 36 12 55 26 46 36 81 28 90 -21 3 -19 11 -36 18 -36 77 -10 99 -5 144 33 25 20 50 44 54 53 17 28 108 15 108 -16 0 -11 5 -19 10 -19 6 0 10 5 10 10 0 16 42 70 55 70 6 0 35 -11 63 -25 29 -14 55 -25 60 -25 4 0 25 -17 47 -38 44 -42 95 -128 95 -160 0 -11 7 -25 16 -32 29 -25 7 -206 -35 -289 -27 -53 -31 -61 -31 -71 0 -5 8 -10 18 -10 22 0 62 40 62 61 0 8 6 26 14 40 18 35 48 171 48 224 1 33 -5 51 -25 75 -30 35 -37 105 -15 152 11 22 17 25 45 21 28 -5 33 -3 33 14 0 27 -25 47 -49 40 -24 -6 -32 11 -19 36 18 35 -26 187 -54 187 -5 0 -21 9 -35 20 -14 11 -34 20 -45 20 -22 0 -68 28 -68 42 0 5 11 26 25 46 33 48 32 60 -9 77 -19 8 -37 18 -40 23 -3 5 -24 14 -48 22 -24 7 -70 22 -103 33 -33 10 -109 23 -170 29 -60 5 -126 10 -145 12 -19 2 -71 7 -115 10 -44 4 -98 11 -119 16 -22 5 -43 7 -46 5 -3 -2 -53 -7 -111 -10 -57 -4 -113 -12 -124 -19 -11 -7 -40 -18 -65 -26 -25 -7 -49 -17 -55 -21 -16 -12 -87 -28 -130 -30 -40 -2 -93 -14 -130 -31 -11 -5 -43 -7 -70 -5 -46 4 -50 7 -47 28 2 13 12 36 23 51 10 15 19 32 19 39 0 15 39 69 50 69 5 0 21 11 36 25 15 14 35 25 44 25 10 0 23 7 30 15 7 9 19 14 26 11 7 -3 46 13 87 34 42 21 97 41 124 45 26 4 55 9 63 13 8 3 22 6 30 7 23 3 80 28 80 36 0 4 26 13 58 20 31 7 62 16 68 21 15 11 150 40 189 41 17 0 63 -3 103 -7 41 -3 79 -3 85 1 15 9 41 13 94 14 24 0 45 5 48 9 3 5 12 7 20 3 11 -4 14 1 13 18 -2 15 2 24 12 24 8 0 25 6 37 13 18 10 22 21 22 67 0 41 -4 55 -15 55 -8 0 -14 9 -14 19 0 19 -25 35 -40 26 -5 -3 -17 6 -26 20 -9 14 -23 25 -30 25 -8 0 -23 5 -33 11 -14 9 -25 8 -51 -4 -30 -15 -36 -15 -81 -1 -28 9 -64 14 -83 11 -20 -3 -45 0 -61 9 -15 8 -36 14 -46 14 -11 0 -22 7 -25 15 -4 8 -11 15 -18 15 -6 0 -40 15 -76 33 -57 29 -75 33 -145 34 -44 0 -111 -4 -150 -9z m-655 -559 c0 -15 -11 -36 -26 -50 -14 -13 -23 -31 -21 -41 3 -9 -1 -19 -9 -22 -8 -3 -14 -12 -14 -20 0 -9 -9 -20 -21 -26 -12 -7 -18 -18 -15 -26 3 -8 1 -14 -4 -14 -6 0 -10 -9 -10 -19 0 -11 -6 -26 -13 -33 -7 -7 -21 -30 -30 -50 -20 -42 -63 -80 -86 -76 -27 5 -23 42 9 82 16 22 30 49 30 61 0 12 7 28 15 35 8 7 15 25 15 39 0 17 14 43 35 68 19 23 35 48 35 57 0 9 7 16 15 16 8 0 15 9 15 20 0 14 7 20 24 20 13 0 27 8 30 17 6 15 8 15 16 3 6 -8 10 -27 10 -41z m112 -89 c-6 -16 -11 -20 -16 -11 -4 6 -2 19 5 27 16 20 21 12 11 -16z m-46 -48 c-12 -11 -18 7 -10 30 l8 23 4 -23 c2 -13 1 -26 -2 -30z m769 -217 c0 -14 -4 -25 -8 -25 -4 0 -16 -8 -27 -17 -10 -10 -47 -29 -82 -42 -35 -14 -68 -30 -74 -38 -17 -20 -44 -16 -44 6 0 29 11 51 24 51 6 0 19 9 28 20 10 10 43 26 75 35 53 15 108 32 108 34 0 1 0 -10 0 -24z m348 -142 c19 -16 40 -38 46 -50 15 -33 38 -28 57 12 22 48 56 47 106 -2 21 -20 38 -42 38 -48 0 -7 7 -26 16 -44 33 -65 8 -72 -246 -68 -158 2 -182 -1 -220 -29 -26 -19 -140 -36 -199 -29 l-56 6 -57 -60 c-32 -34 -62 -61 -67 -61 -5 0 -17 -13 -27 -29 -12 -20 -32 -33 -70 -45 -29 -9 -56 -20 -58 -25 -3 -4 2 -36 10 -71 17 -75 11 -86 -52 -96 -39 -6 -44 -9 -38 -26 7 -23 -9 -38 -43 -38 -13 0 -24 8 -28 19 -10 31 -31 44 -53 32 -25 -13 -37 10 -22 39 6 10 10 28 10 40 0 12 21 45 48 73 26 29 53 62 60 75 29 53 38 66 55 84 9 10 25 18 36 18 25 0 68 35 77 63 27 84 118 153 189 142 49 -7 71 7 82 54 12 49 53 76 111 75 40 -1 50 -6 78 -39 33 -40 64 -43 64 -7 0 10 9 28 20 40 30 32 87 30 133 -5z m-1543 -1917 c-18 -18 -11 -28 18 -22 15 3 21 3 15 0 -7 -3 -13 -17 -13 -30 0 -13 -4 -24 -10 -24 -5 0 -10 -6 -10 -14 0 -13 -29 -26 -61 -26 -21 0 -31 46 -13 61 8 6 14 17 14 25 0 7 9 18 20 24 11 6 20 18 20 27 0 13 3 13 15 3 11 -9 13 -16 5 -24z"/>
 <path d="M2871 3184 c0 -11 3 -14 6 -6 3 7 2 16 -1 19 -3 4 -6 -2 -5 -13z"/>
 <path d="M1 2854 c0 -11 3 -14 6 -6 3 7 2 16 -1 19 -3 4 -6 -2 -5 -13z"/>
 <path d="M2677 2693 c-4 -3 -7 -11 -7 -17 0 -6 5 -5 12 2 6 6 9 14 7 17 -3 3 -9 2 -12 -2z"/>
 <path d="M2900 2655 c0 -8 7 -15 15 -15 8 0 15 7 15 15 0 8 -7 15 -15 15 -8 0 -15 -7 -15 -15z"/>
 <path d="M2200 1785 c0 -8 5 -15 10 -15 6 0 10 7 10 15 0 8 -4 15 -10 15 -5 0 -10 -7 -10 -15z"/>
 <path d="M2208 1675 c-8 -19 -8 -35 0 -62 6 -21 14 -60 17 -88 7 -56 63 -175 82 -175 7 0 13 6 13 13 0 7 9 18 20 25 29 18 40 54 42 135 1 55 -3 73 -15 82 -10 7 -17 17 -17 22 0 14 -49 58 -56 50 -4 -3 -13 0 -21 8 -22 23 -52 18 -65 -10z"/>
 <path d="M2680 1080 c0 -5 5 -10 10 -10 6 0 10 5 10 10 0 6 -4 10 -10 10 -5 0 -10 -4 -10 -10z"/>
 <path d="M1647 1001 c-56 -31 -60 -31 -146 -25 -61 5 -90 3 -95 -5 -4 -6 -15 -11 -25 -11 -10 0 -38 -13 -62 -30 -54 -36 -73 -37 -111 -4 -45 37 -87 30 -111 -18 -17 -35 -17 -41 -3 -98 21 -79 65 -143 124 -177 26 -15 65 -41 87 -59 60 -47 80 -55 164 -65 86 -11 72 -10 241 -10 68 0 129 -4 134 -9 15 -15 59 -12 83 5 31 22 113 36 223 40 100 3 170 24 170 50 0 23 33 35 73 25 21 -4 47 -5 59 -2 28 7 88 66 88 86 0 10 6 13 15 10 11 -4 15 0 15 16 0 12 -5 20 -12 18 -6 -2 -24 21 -40 51 -44 84 -74 111 -122 111 -35 0 -45 6 -76 41 -29 33 -47 44 -105 60 -80 22 -123 24 -195 8 -36 -8 -59 -8 -78 0 -15 5 -74 13 -132 16 -104 7 -106 6 -163 -24z m302 -56 c20 -17 25 -18 54 -6 49 21 92 24 132 11 41 -14 118 -85 123 -115 19 -109 6 -190 -34 -205 -39 -15 -101 -15 -120 0 -9 8 -27 32 -40 52 -31 49 -57 49 -88 0 -13 -20 -41 -50 -63 -65 -39 -27 -41 -27 -114 -17 -97 13 -119 23 -148 65 -31 46 -60 46 -102 -2 -31 -35 -36 -38 -101 -41 -56 -4 -73 -1 -88 13 -11 10 -20 23 -20 29 0 19 -74 77 -92 72 -23 -5 -31 9 -24 39 4 16 16 26 35 30 18 4 44 24 66 51 20 24 52 51 70 58 39 16 85 23 100 14 6 -3 33 -9 61 -13 40 -5 53 -3 63 9 8 9 19 16 26 16 7 0 19 7 26 16 11 13 33 15 135 12 104 -2 125 -6 143 -23z"/>
 <path d="M2740 540 c0 -5 7 -10 15 -10 8 0 15 5 15 10 0 6 -7 10 -15 10 -8 0 -15 -4 -15 -10z"/>
 </g>
<g id="layer6" fill="#7f7f7f" stroke="none">
 <path d="M1 3338 c0 -317 4 -504 9 -490 5 12 16 22 23 22 8 0 25 16 38 34 13 19 34 40 46 45 13 6 23 16 23 23 0 7 9 19 20 26 11 7 20 17 20 23 0 5 28 38 63 72 70 70 137 149 137 164 0 5 16 27 35 49 19 21 35 44 35 50 0 5 13 23 29 38 16 16 32 38 35 50 3 11 15 26 28 31 13 6 26 24 32 43 5 17 13 32 18 32 16 0 50 38 43 49 -3 6 4 15 17 20 13 5 30 22 38 37 15 29 84 100 116 120 10 5 28 24 42 42 l25 32 -437 0 -436 0 1 -512z"/>
 <path d="M2538 3831 c12 -11 22 -24 22 -29 0 -5 7 -15 15 -22 8 -7 12 -17 8 -23 -3 -5 0 -15 8 -21 19 -15 39 -52 39 -71 0 -8 6 -15 13 -16 11 0 39 -54 87 -164 26 -60 58 -125 87 -175 15 -26 25 -58 24 -77 -1 -18 4 -35 12 -40 15 -9 29 -39 31 -63 1 -9 11 -15 26 -15 14 -1 47 -13 74 -28 27 -15 54 -27 61 -27 6 0 20 -9 30 -20 10 -11 27 -22 39 -26 23 -8 140 -94 199 -149 22 -19 43 -35 47 -35 15 0 60 62 90 123 42 88 60 169 60 267 0 105 -12 148 -56 210 -19 26 -34 55 -34 65 0 9 -9 19 -19 22 -22 5 -35 43 -21 57 6 6 15 4 24 -3 21 -17 47 -1 70 43 18 33 18 44 8 110 -6 40 -16 85 -21 99 l-11 27 -467 0 c-459 -1 -468 -1 -445 -19z"/>
 <path d="M1795 3500 c-38 -4 -101 -6 -140 -5 -60 2 -110 -4 -268 -30 -49 -8 -147 -38 -153 -46 -2 -4 -10 -6 -18 -3 -30 12 -191 -78 -341 -191 -81 -60 -285 -247 -285 -261 0 -6 -16 -24 -35 -38 -19 -15 -35 -31 -35 -36 0 -13 -42 -55 -62 -63 -10 -3 -20 -18 -24 -32 -3 -14 -12 -25 -20 -25 -8 0 -14 -4 -14 -10 0 -5 -38 -47 -84 -92 -46 -46 -105 -110 -131 -143 -25 -33 -57 -66 -71 -73 -13 -7 -24 -16 -24 -20 0 -4 -20 -30 -45 -57 l-45 -50 0 -389 0 -389 35 44 c42 52 75 117 75 146 0 11 7 26 16 34 11 9 14 22 10 41 -3 16 1 44 11 66 8 20 20 48 26 62 14 36 39 92 48 112 5 10 9 23 9 28 0 10 18 52 65 150 14 30 48 94 111 212 8 14 25 33 38 41 13 9 35 39 49 67 14 28 50 81 80 118 31 37 58 79 62 94 4 15 13 29 21 32 8 3 14 10 14 16 0 23 137 142 196 171 34 16 78 48 97 69 20 22 41 40 48 40 7 0 20 6 28 13 9 7 36 19 61 27 25 7 55 19 68 27 15 9 22 10 22 2 0 -6 7 -8 17 -5 9 4 43 9 76 12 33 2 64 7 68 10 5 3 66 8 136 11 111 5 130 4 142 -11 7 -9 21 -16 30 -16 19 0 88 -35 108 -56 8 -8 22 -14 32 -14 10 0 32 -7 50 -16 22 -11 36 -13 43 -6 11 11 78 -1 116 -20 18 -10 29 -8 63 10 33 18 41 19 45 7 4 -8 14 -15 24 -15 10 0 28 -12 39 -26 11 -14 28 -24 38 -22 12 2 19 -4 21 -19 2 -13 7 -23 12 -23 4 0 7 -11 6 -25 0 -14 -7 -25 -13 -25 -7 0 -13 -4 -13 -10 0 -5 -6 -7 -14 -4 -9 4 -15 -7 -20 -35 -6 -42 -19 -50 -71 -49 -11 1 -48 -5 -82 -12 -51 -12 -76 -12 -137 -1 -64 10 -79 10 -104 -3 -16 -8 -52 -17 -81 -19 -29 -3 -58 -10 -64 -16 -6 -6 -21 -11 -32 -11 -12 0 -25 -3 -28 -7 -4 -3 -21 -8 -39 -10 -18 -2 -34 -7 -37 -11 -15 -19 -60 -40 -79 -36 -11 3 -23 1 -26 -5 -4 -6 -20 -11 -36 -11 -16 0 -31 -4 -35 -10 -3 -5 -12 -7 -19 -4 -7 3 -40 -9 -72 -26 -32 -17 -74 -32 -92 -33 -20 -2 -38 -10 -43 -20 -6 -9 -17 -17 -25 -17 -15 0 -59 -25 -82 -47 -7 -7 -20 -13 -28 -13 -8 0 -14 -9 -14 -19 0 -11 -4 -22 -9 -25 -18 -11 -61 -106 -61 -135 0 -26 4 -29 44 -35 27 -4 63 -2 88 5 24 7 47 12 52 10 4 -1 13 3 20 8 6 6 41 12 77 14 36 3 81 12 100 20 19 8 52 21 74 28 22 6 49 18 60 25 18 11 218 32 255 26 8 -1 62 -7 120 -13 58 -6 121 -12 140 -15 19 -2 73 -6 120 -8 99 -6 184 -22 222 -42 14 -8 34 -14 43 -14 10 0 44 -13 77 -30 73 -37 84 -37 103 0 l15 30 43 -17 c60 -24 153 -78 214 -124 29 -21 55 -39 58 -39 21 0 145 -180 192 -280 28 -57 43 -107 69 -225 3 -16 5 -68 3 -115 -1 -47 -3 -101 -4 -120 0 -19 -3 -39 -6 -45 -4 -5 -16 -41 -29 -80 -12 -38 -33 -89 -46 -112 -13 -23 -24 -49 -24 -57 0 -9 -4 -16 -10 -16 -5 0 -16 -13 -22 -29 -15 -34 -91 -116 -164 -177 -86 -72 -81 -72 -153 7 -35 38 -71 69 -81 69 -10 0 -22 4 -25 10 -3 5 -16 10 -29 10 -12 0 -31 7 -42 15 -10 8 -31 15 -46 15 -19 0 -28 5 -28 16 0 9 -7 31 -16 50 -15 32 -17 33 -40 17 -22 -14 -24 -14 -18 0 3 9 14 19 24 22 20 7 60 -14 60 -30 0 -6 9 -11 20 -11 11 0 20 7 20 15 0 11 3 11 18 -2 23 -21 78 -22 114 -3 16 9 30 11 33 5 4 -5 15 -9 26 -9 16 0 18 -5 13 -25 -10 -41 13 -30 83 38 70 68 130 161 159 247 26 76 26 310 1 355 -9 17 -17 38 -17 49 0 29 -58 124 -107 175 -25 25 -48 51 -51 57 -8 14 -109 94 -118 94 -3 0 -3 -15 0 -32 21 -109 24 -206 8 -262 -16 -58 -9 -122 17 -151 10 -11 21 -30 23 -41 7 -29 -16 -168 -37 -224 -9 -25 -19 -54 -22 -65 -9 -32 -24 -45 -48 -45 -13 0 -32 -10 -42 -22 -10 -13 -31 -30 -47 -38 -16 -8 -31 -20 -33 -27 -7 -18 -143 127 -143 152 0 3 6 5 14 5 7 0 19 6 25 14 10 12 6 27 -18 73 -29 57 -51 155 -54 242 -2 32 -7 46 -19 50 -13 4 -15 10 -8 21 5 8 10 25 10 36 0 12 6 24 14 27 26 10 14 60 -17 75 -36 17 -107 7 -114 -17 -3 -9 -23 -31 -46 -49 -33 -27 -47 -32 -81 -30 -37 3 -42 6 -52 38 -15 47 -60 58 -112 26 -20 -11 -50 -25 -67 -31 -38 -13 -49 -63 -16 -72 12 -3 21 -9 21 -14 0 -5 7 -9 15 -9 8 0 15 6 15 13 0 16 59 46 78 40 17 -6 15 -33 -2 -33 -7 0 -17 -10 -21 -22 -6 -20 -8 -20 -12 -5 -2 9 -7 17 -11 17 -11 0 -62 -53 -62 -65 0 -11 -41 -12 -86 -1 -30 8 -64 -9 -64 -31 0 -10 16 -34 36 -54 37 -38 38 -59 4 -59 -10 0 -22 -4 -25 -10 -19 -30 -203 -76 -266 -66 -31 5 -40 1 -68 -27 -26 -27 -39 -33 -69 -32 -20 1 -52 -4 -69 -11 -20 -8 -35 -9 -39 -3 -3 5 -11 8 -17 7 -7 -1 -22 3 -34 10 -17 9 -34 10 -68 2 -33 -7 -57 -7 -85 1 -34 10 -41 9 -66 -10 -14 -11 -36 -21 -48 -21 -12 0 -27 -5 -34 -12 -17 -17 -16 -123 2 -137 8 -7 12 -20 9 -30 -7 -29 30 -86 59 -89 36 -4 45 -50 15 -75 -21 -16 -21 -18 -4 -31 9 -7 17 -23 17 -35 0 -22 14 -53 39 -83 9 -12 11 -29 7 -53 -6 -29 -4 -37 11 -42 32 -12 83 -55 83 -70 0 -8 8 -27 19 -41 10 -15 26 -43 35 -64 10 -20 26 -44 37 -54 10 -9 19 -23 19 -30 0 -29 266 -199 329 -210 20 -4 42 -11 48 -16 8 -6 44 -7 90 -3 43 3 213 7 378 8 l300 1 45 -29 45 -29 -35 -8 c-19 -5 -55 -11 -80 -14 -81 -8 -170 -40 -185 -64 -3 -5 -15 -10 -26 -10 -11 0 -22 -7 -25 -15 -4 -8 -14 -15 -25 -15 -19 0 -48 -51 -46 -82 0 -17 45 -18 801 -18 467 0 795 4 787 9 -9 6 -12 18 -8 32 3 13 2 28 -3 34 -13 16 -19 106 -8 128 6 12 6 23 -1 31 -6 6 -8 21 -5 32 3 12 -3 27 -16 39 -20 18 -21 18 -68 -26 -26 -24 -59 -55 -74 -68 l-27 -24 -35 29 c-19 16 -35 33 -35 39 -1 5 -15 23 -31 40 l-30 31 125 127 c69 71 125 132 125 137 0 6 9 19 20 30 16 16 20 31 17 71 -1 27 -7 53 -12 57 -6 4 -11 25 -12 47 -1 22 -4 51 -6 65 -2 14 -5 42 -6 63 -1 51 -24 48 -49 -6 -11 -24 -27 -49 -36 -56 -9 -8 -16 -18 -16 -23 0 -28 -232 -298 -256 -298 -4 0 -18 -9 -30 -21 l-22 -20 -26 26 c-14 14 -26 30 -26 35 0 5 -20 26 -45 46 -34 29 -42 41 -33 51 6 7 16 13 23 13 7 0 25 13 38 30 14 16 30 30 36 30 5 0 20 14 33 30 13 17 42 52 66 78 23 26 42 50 42 54 0 4 11 17 24 30 26 25 38 47 90 158 43 93 61 149 75 225 13 73 12 126 -2 143 -6 7 -12 32 -14 55 -5 77 -41 229 -63 269 -6 10 -10 28 -10 41 0 12 -7 32 -15 43 -8 12 -12 24 -9 27 7 6 -7 60 -54 212 l-37 120 -95 95 c-129 129 -189 178 -273 223 -84 44 -86 50 -30 143 31 51 41 60 60 56 13 -2 26 -8 29 -13 3 -5 12 -9 20 -9 8 0 23 -9 34 -20 27 -27 68 -36 86 -18 12 12 6 31 -52 146 -36 73 -70 132 -76 132 -5 0 -6 4 -3 10 9 15 -110 184 -178 253 -91 90 -115 110 -182 141 -33 16 -68 33 -77 38 -10 4 -24 8 -32 8 -7 0 -19 7 -26 15 -7 8 -18 14 -24 13 -13 -2 -107 24 -181 51 -60 22 -194 32 -290 21z m880 -1660 c3 -5 -1 -10 -9 -10 -9 0 -16 5 -16 10 0 6 4 10 9 10 6 0 13 -4 16 -10z m-535 -474 c0 -7 8 -21 18 -32 17 -19 26 -35 58 -109 10 -22 24 -44 31 -48 7 -4 13 -14 13 -21 0 -8 7 -16 15 -20 17 -6 20 -26 5 -26 -6 0 -23 -11 -37 -24 -15 -14 -30 -23 -34 -21 -3 3 -39 6 -78 7 -39 1 -71 5 -71 10 0 13 -28 9 -33 -4 -3 -10 -9 -10 -26 0 -25 15 -61 16 -61 1 0 -5 -4 -8 -10 -4 -5 3 -7 12 -4 20 3 8 -4 19 -17 25 -19 10 -24 10 -34 -4 -11 -15 -13 -15 -18 4 -6 23 9 36 36 31 15 -2 18 2 12 21 -10 31 -12 33 -29 19 -11 -9 -14 -6 -18 18 -3 23 0 31 16 36 12 4 25 7 29 6 4 -1 15 5 23 14 21 20 31 19 37 -5 8 -33 37 -25 37 10 0 26 4 30 26 30 21 0 24 4 19 20 -5 15 -3 18 8 14 10 -3 16 4 20 25 4 17 14 31 24 33 21 5 43 -9 43 -26z m-298 -131 c3 -67 -7 -95 -36 -95 -9 0 -16 -6 -16 -12 0 -10 -2 -10 -8 -1 -10 16 -62 28 -62 14 0 -6 6 -11 14 -11 7 0 19 -7 26 -15 10 -12 10 -15 -4 -15 -21 0 -21 0 -57 -10 -26 -8 -30 -7 -25 7 4 9 -1 24 -9 33 -14 15 -14 21 -3 39 7 12 19 21 27 21 10 0 12 10 7 38 -3 20 -3 31 0 25 9 -21 62 -16 74 7 6 11 16 17 25 14 9 -4 15 0 15 10 0 9 6 16 14 16 11 0 15 -17 18 -65z m-477 -125 c3 -5 1 -10 -4 -10 -6 0 -11 5 -11 10 0 6 2 10 4 10 3 0 8 -4 11 -10z m980 -41 c11 -17 -1 -21 -15 -4 -8 9 -8 15 -2 15 6 0 14 -5 17 -11z m-400 -81 c16 -7 38 -7 74 1 73 16 116 14 196 -8 46 -13 75 -27 87 -43 39 -52 48 -58 91 -58 49 0 59 -8 100 -80 37 -66 38 -100 1 -141 -30 -36 -56 -41 -119 -25 -21 5 -32 0 -56 -24 -47 -46 -64 -52 -168 -56 -126 -5 -195 -19 -233 -45 -29 -21 -32 -22 -62 -5 -26 14 -57 17 -171 15 -145 -1 -279 12 -318 32 -12 6 -40 26 -62 44 -22 17 -59 42 -82 55 -52 29 -88 82 -108 157 -20 77 -7 123 35 123 16 0 42 -11 58 -25 36 -30 61 -32 95 -5 14 12 47 30 73 42 41 18 59 20 130 14 80 -7 85 -6 141 24 58 32 58 32 166 25 60 -3 119 -11 132 -17z m783 -475 c15 -10 48 -34 73 -55 25 -21 51 -38 57 -38 7 0 12 -11 12 -24 0 -19 -7 -25 -39 -34 -22 -5 -43 -6 -48 -2 -4 4 -42 13 -83 19 -201 30 -344 58 -347 68 -4 12 28 23 68 23 24 0 83 19 119 39 8 4 40 7 71 5 31 -1 62 2 70 7 18 11 15 12 47 -8z"/>
 <path d="M1930 1205 c0 -8 5 -15 10 -15 6 0 10 7 10 15 0 8 -4 15 -10 15 -5 0 -10 -7 -10 -15z"/>
 <path d="M1790 1245 c0 -8 5 -15 10 -15 6 0 10 7 10 15 0 8 -4 15 -10 15 -5 0 -10 -7 -10 -15z"/>
 <path d="M1787 1203 c-12 -11 -8 -23 8 -23 8 0 15 7 15 15 0 16 -12 20 -23 8z"/>
 <path d="M1722 1188 c7 -19 38 -22 38 -4 0 10 -9 16 -21 16 -12 0 -19 -5 -17 -12z"/>
 <path d="M1687 1153 c-12 -11 -8 -23 8 -23 8 0 15 7 15 15 0 16 -12 20 -23 8z"/>
 <path d="M3000 2807 c0 -32 49 -117 68 -117 4 0 13 -15 21 -32 21 -50 41 -69 65 -62 26 8 76 54 76 70 0 13 -103 104 -119 104 -6 0 -15 9 -21 20 -6 11 -17 20 -24 20 -8 0 -19 7 -26 15 -22 26 -40 18 -40 -18z"/>
 <path d="M670 2682 c-19 -9 -35 -24 -35 -32 0 -8 -8 -18 -17 -22 -10 -4 -18 -17 -18 -28 0 -11 -4 -20 -9 -20 -15 0 -61 -79 -61 -104 0 -14 -4 -28 -10 -31 -5 -3 -10 -15 -10 -26 0 -10 -4 -19 -10 -19 -5 0 -10 -5 -10 -12 0 -6 -8 -21 -19 -32 -10 -12 -23 -35 -29 -53 -19 -58 24 -109 58 -68 7 8 17 15 22 15 13 0 53 51 53 67 0 7 8 22 18 33 9 11 17 23 17 26 0 3 9 19 20 34 11 16 19 35 18 42 -2 8 5 12 20 11 24 -3 31 20 10 33 -7 5 -4 10 11 15 16 7 20 14 16 32 -4 16 0 29 14 41 26 24 38 81 21 101 -16 19 -26 18 -70 -3z"/>
 <path d="M846 2628 c-9 -12 -16 -28 -16 -34 0 -7 -8 -10 -20 -7 -14 4 -20 0 -20 -11 0 -9 -6 -19 -14 -22 -8 -3 -17 -21 -20 -40 -4 -20 -13 -34 -21 -34 -8 0 -15 -7 -15 -15 0 -19 2 -19 50 6 22 12 40 27 40 35 0 13 25 19 58 15 14 -2 17 45 2 54 -17 11 -11 32 11 38 12 3 19 12 17 19 -8 22 -35 20 -52 -4z"/>
 </g>

</svg>